<svg width="576" height="154" viewBox="0 0 576 154" fill="none" xmlns="http://www.w3.org/2000/svg">
<g clip-path="url(#clip0_1_2)">
<path d="M143.447 15.9661C133.891 6.66678 121.172 1.55495 107.607 1.55495C107.521 1.55495 107.435 1.55495 107.349 1.55572C93.7024 1.62072 80.8481 6.85142 71.1546 16.2842L20.1473 65.9196C15.2962 70.6406 12.624 76.9176 12.624 83.5939C12.624 90.2701 15.2958 96.5471 20.1473 101.268L27.6517 108.571L5.92413 129.714C0.236188 135.249 0.236188 144.255 5.92413 149.79C8.76829 152.557 12.5039 153.941 16.2398 153.941C19.9758 153.941 23.7113 152.557 26.5555 149.79L48.283 128.647L55.7874 135.949C60.6389 140.67 67.0893 143.27 73.9501 143.27C80.8113 143.27 87.2614 140.67 92.1129 135.949L143.12 86.3138C152.814 76.8811 158.189 64.3725 158.256 51.0927C158.322 37.7986 153.063 25.3239 143.447 15.9661ZM20.9644 144.35C18.7187 146.536 15.2607 146.833 12.6798 145.25C12.2667 144.997 11.8738 144.7 11.5144 144.35C8.90902 141.815 8.90902 137.689 11.5144 135.154L33.242 114.011L39.322 119.928L42.6923 123.207L20.9644 144.35ZM137.529 80.8739L86.5222 130.509C83.1637 133.777 78.6988 135.577 73.9497 135.577C71.168 135.577 68.4859 134.955 66.0643 133.787C64.3515 132.96 62.7683 131.863 61.3773 130.509L25.7376 95.8278C22.3792 92.5601 20.53 88.2149 20.53 83.5935C20.53 78.9721 22.3796 74.6269 25.7376 71.3592L76.7449 21.7242C82.5411 16.0838 89.6695 12.2202 97.4233 10.4146C100.653 9.66256 103.991 9.26481 107.388 9.24866C107.461 9.24827 107.532 9.24827 107.605 9.24827C119.058 9.24827 129.795 13.5611 137.856 21.406C145.969 29.3005 150.406 39.8304 150.349 51.0553C150.293 62.2941 145.74 72.884 137.529 80.8739Z" fill="#5336FF"/>
<path d="M130.89 33.6154C132.434 32.1133 132.434 29.6776 130.89 28.1754C124.632 22.0854 116.264 18.788 107.332 18.8377C98.4225 18.9058 90.0303 22.335 83.7012 28.4939C82.1575 29.9961 82.1575 32.4318 83.7012 33.9339C84.4732 34.6851 85.4848 35.0606 86.4963 35.0606C87.5079 35.0606 88.5199 34.6848 89.2915 33.9339C94.1434 29.2125 100.572 26.5833 107.395 26.531C114.193 26.4837 120.552 28.9952 125.3 33.6158C126.844 35.1179 129.347 35.1175 130.89 33.6154Z" fill="#5336FF"/>
</g>
<path d="M208.298 57.717C202.777 57.717 198.436 59.6207 195.273 63.4283C192.111 67.2359 190.53 72.4909 190.53 79.1933C190.53 86.2086 192.044 91.5157 195.072 95.1147C198.128 98.7136 202.536 100.513 208.298 100.513C210.791 100.513 213.203 100.278 215.534 99.8089C217.866 99.3134 220.291 98.6875 222.811 97.9312V105.951C218.201 107.646 212.975 108.493 207.132 108.493C198.53 108.493 191.923 105.964 187.314 100.904C182.704 95.8188 180.399 88.5557 180.399 79.115C180.399 73.1689 181.512 67.9661 183.736 63.5066C185.987 59.047 189.23 55.6306 193.464 53.2574C197.699 50.8842 202.67 49.6976 208.379 49.6976C214.382 49.6976 219.93 50.9233 225.022 53.3748L221.564 61.1594C219.581 60.2467 217.477 59.4512 215.253 58.7732C213.055 58.069 210.737 57.717 208.298 57.717Z" fill="#242331"/>
<path d="M257.021 63.663C258.924 63.663 260.491 63.7934 261.724 64.0542L260.8 72.6213C259.46 72.3083 258.066 72.1519 256.619 72.1519C252.84 72.1519 249.771 73.3515 247.413 75.7508C245.081 78.1501 243.916 81.2666 243.916 85.1002V107.711H234.469V64.4454H241.865L243.112 72.0736H243.594C245.068 69.4918 246.984 67.4445 249.343 65.9319C251.728 64.4193 254.287 63.663 257.021 63.663Z" fill="#242331"/>
<path d="M263.252 64.4454H273.543L282.588 88.973C283.955 92.4676 284.866 95.7536 285.322 98.831H285.643C285.885 97.3966 286.327 95.6623 286.97 93.6282C287.613 91.5679 291.017 81.8403 297.181 64.4454H307.392L288.377 113.461C284.92 122.459 279.158 126.958 271.091 126.958C269 126.958 266.964 126.736 264.98 126.292V119.016C266.401 119.329 268.022 119.486 269.845 119.486C274.401 119.486 277.603 116.917 279.452 111.779L281.101 107.711L263.252 64.4454Z" fill="#242331"/>
<path d="M353.582 86C353.582 93.0675 351.719 98.5832 347.994 102.547C344.268 106.511 339.083 108.493 332.436 108.493C328.282 108.493 324.611 107.581 321.421 105.755C318.232 103.929 315.78 101.309 314.065 97.8921C312.35 94.4757 311.492 90.5117 311.492 86C311.492 78.9846 313.341 73.508 317.04 69.57C320.738 65.632 325.951 63.663 332.677 63.663C339.109 63.663 344.201 65.6842 347.953 69.7265C351.706 73.7427 353.582 79.1672 353.582 86ZM321.22 86C321.22 95.9883 325.013 100.983 332.597 100.983C340.101 100.983 343.853 95.9883 343.853 86C343.853 76.1159 340.074 71.1739 332.517 71.1739C328.55 71.1739 325.669 72.4518 323.874 75.0075C322.105 77.5633 321.22 81.2274 321.22 86Z" fill="#242331"/>
<path d="M365.481 107.711V50.5191H375.089V99.6916H399.972V107.711H365.481Z" fill="#242331"/>
<path d="M436.916 107.711L435.027 101.687H434.705C432.561 104.321 430.404 106.12 428.233 107.085C426.062 108.024 423.275 108.493 419.872 108.493C415.503 108.493 412.086 107.346 409.62 105.051C407.182 102.756 405.962 99.509 405.962 95.3103C405.962 90.8507 407.664 87.4865 411.068 85.2176C414.471 82.9487 419.657 81.7099 426.625 81.5013L434.303 81.2666V78.9585C434.303 76.1941 433.633 74.1339 432.293 72.7778C430.98 71.3956 428.93 70.7045 426.143 70.7045C423.865 70.7045 421.681 71.0304 419.59 71.6824C417.5 72.3344 415.49 73.1037 413.56 73.9904L410.505 67.4185C412.917 66.1927 415.557 65.2669 418.424 64.641C421.292 63.989 423.999 63.663 426.545 63.663C432.2 63.663 436.461 64.8627 439.328 67.262C442.223 69.6613 443.67 73.4297 443.67 78.5674V107.711H436.916ZM422.846 101.452C426.277 101.452 429.024 100.526 431.087 98.6745C433.178 96.7968 434.223 94.1758 434.223 90.8116V87.0562L428.515 87.2909C424.066 87.4474 420.823 88.1776 418.786 89.4815C416.776 90.7594 415.771 92.7284 415.771 95.3885C415.771 97.3184 416.361 98.8179 417.54 99.8872C418.719 100.93 420.488 101.452 422.846 101.452Z" fill="#242331"/>
<path d="M450.102 64.4454H460.393L469.438 88.973C470.805 92.4676 471.716 95.7536 472.172 98.831H472.493C472.735 97.3966 473.177 95.6623 473.82 93.6282C474.463 91.5679 477.867 81.8403 484.031 64.4454H494.242L475.227 113.461C471.77 122.459 466.008 126.958 457.941 126.958C455.851 126.958 453.814 126.736 451.831 126.292V119.016C453.251 119.329 454.872 119.486 456.695 119.486C461.251 119.486 464.453 116.917 466.303 111.779L467.951 107.711L450.102 64.4454Z" fill="#242331"/>
<path d="M520.412 108.493C513.498 108.493 508.084 106.537 504.171 102.626C500.285 98.6875 498.342 93.2761 498.342 86.3911C498.342 79.3237 500.151 73.7688 503.769 69.7265C507.387 65.6842 512.359 63.663 518.683 63.663C524.553 63.663 529.189 65.3973 532.593 68.8659C535.996 72.3344 537.698 77.1069 537.698 83.1834V88.1515H508.071C508.205 92.3503 509.37 95.5841 511.568 97.853C513.766 100.096 516.861 101.217 520.854 101.217C523.481 101.217 525.919 100.983 528.171 100.513C530.449 100.018 532.887 99.2091 535.487 98.0877V105.559C533.182 106.629 530.851 107.385 528.492 107.828C526.134 108.272 523.44 108.493 520.412 108.493ZM518.683 70.6262C515.682 70.6262 513.27 71.552 511.447 73.4037C509.652 75.2553 508.58 77.9545 508.231 81.5013H528.412C528.358 77.9284 527.474 75.2292 525.759 73.4037C524.043 71.552 521.685 70.6262 518.683 70.6262Z" fill="#242331"/>
<path d="M570.984 63.663C572.887 63.663 574.454 63.7934 575.687 64.0542L574.763 72.6213C573.423 72.3083 572.029 72.1519 570.582 72.1519C566.803 72.1519 563.734 73.3515 561.376 75.7508C559.044 78.1501 557.879 81.2666 557.879 85.1002V107.711H548.432V64.4454H555.828L557.075 72.0736H557.557C559.031 69.4918 560.947 67.4445 563.306 65.9319C565.691 64.4193 568.25 63.663 570.984 63.663Z" fill="#242331"/>
<defs>
<clipPath id="clip0_1_2">
<rect width="158.256" height="154" fill="white"/>
</clipPath>
</defs>
</svg>
